<svg width="27" height="27" viewBox="0 0 27 27" fill="none" xmlns="http://www.w3.org/2000/svg">
<path d="M14 1V0.5H13V1H14ZM13 7.73077V8.23077H14V7.73077H13ZM14 19.2692V18.7692H13V19.2692H14ZM13 26V26.5H14V26H13ZM7.73077 13.9913H8.23077V12.9913H7.73077V13.9913ZM1 12.9913H0.5V13.9913H1V12.9913ZM25.9994 14L26.4994 14.0006L26.5006 13.0006L26.0006 13L25.9994 14ZM19.2699 12.9913L18.7699 12.9907L18.7686 13.9907L19.2686 13.9913L19.2699 12.9913ZM13 1V7.73077H14V1H13ZM13 19.2692V26H14V19.2692H13ZM7.73077 12.9913H1V13.9913H7.73077V12.9913ZM26.0006 13L19.2699 12.9913L19.2686 13.9913L25.9994 14L26.0006 13ZM3.53106 4.23817L9.30029 10.0074L10.0074 9.30029L4.23817 3.53106L3.53106 4.23817ZM22.7618 3.53106L16.9926 9.30029L17.6997 10.0074L23.4689 4.23817L22.7618 3.53106ZM4.23817 23.4689L10.0074 17.6997L9.30029 16.9926L3.53106 22.7618L4.23817 23.4689ZM16.9926 17.6997L22.7618 23.4689L23.4689 22.7618L17.6997 16.9926L16.9926 17.6997Z" fill="#8C9299"/>
</svg>
